<svg xmlns="http://www.w3.org/2000/svg" xmlns:xlink="http://www.w3.org/1999/xlink" width="124.719" height="44.5" viewBox="0 0 124.719 44.5">
  <defs>
    <style>
      .cls-1 {
        fill-rule: evenodd;
        fill: url(#linear-gradient);
      }
    </style>
    <linearGradient id="linear-gradient" x1="95.578" y1="52.25" x2="95.578" y2="7.75" gradientUnits="userSpaceOnUse">
      <stop offset="0" stop-color="#00ff5a"/>
      <stop offset="0.219" stop-color="#00c6ff"/>
      <stop offset="0.695" stop-color="#ffa800"/>
      <stop offset="1" stop-color="#f600ff"/>
    </linearGradient>
  </defs>
  <path id="Gradient_Fill_1" data-name="Gradient Fill 1" class="cls-1" d="M44.917,25.408a9.605,9.605,0,0,0,2.167-.479,5.184,5.184,0,0,0,2.392-1.766,4.4,4.4,0,0,0,.886-2.689q0-3.229-4.067-4.346,3.1-1.238,3.1-3.909a3.745,3.745,0,0,0-.3-1.475,4.118,4.118,0,0,0-.858-1.275,4.984,4.984,0,0,0-1.295-.953A6.037,6.037,0,0,0,45,7.91a18.06,18.06,0,0,0-2.561-.158H35.756a2.939,2.939,0,0,0-1.935.516,2.128,2.128,0,0,0-.6,1.693V23.339a2.163,2.163,0,0,0,.584,1.681,2.882,2.882,0,0,0,1.949.528h6.3A25.527,25.527,0,0,0,44.917,25.408Zm0.113-7.156a2.068,2.068,0,0,1,1.1,1.954q0,2.634-4.236,2.634H37.4v-5.2h4.348A6.962,6.962,0,0,1,45.03,18.253ZM40.794,10.46a9.728,9.728,0,0,1,3.391.443,1.738,1.738,0,0,1,1.112,1.79,1.963,1.963,0,0,1-.352,1.141,2.239,2.239,0,0,1-1.3.971,8.844,8.844,0,0,1-2.413.255H37.4v-4.6h3.392ZM55.986,27.5a1.727,1.727,0,0,1-.682.589,2.605,2.605,0,0,1-1.041.17,3.312,3.312,0,0,1-.633-0.073,2.518,2.518,0,0,0-.605-0.073,1.924,1.924,0,0,0-1.189.31,1.046,1.046,0,0,0-.4.88,1.155,1.155,0,0,0,.844,1.153,7.665,7.665,0,0,0,2.533.316,6.868,6.868,0,0,0,2.751-.455,4,4,0,0,0,1.639-1.3,12.506,12.506,0,0,0,1.266-2.343l5.01-11.313a8.633,8.633,0,0,0,.31-0.862q0.126-.425.183-0.655a1.305,1.305,0,0,0-.218-0.716,1.526,1.526,0,0,0-.619-0.54,1.852,1.852,0,0,0-.837-0.2,1.966,1.966,0,0,0-.936.182,1.768,1.768,0,0,0-.626.7,12.1,12.1,0,0,0-.661,1.444L58.99,22.295,55.74,14.138a4.017,4.017,0,0,0-.746-1.3,1.626,1.626,0,0,0-1.252-.455,2.061,2.061,0,0,0-.922.219,1.792,1.792,0,0,0-.7.583,1.353,1.353,0,0,0-.253.789,3.445,3.445,0,0,0,.436,1.287l4.728,10.269-0.352.741A8.629,8.629,0,0,1,55.986,27.5ZM67.061,13a1.018,1.018,0,0,0-.457.856,1.048,1.048,0,0,0,.436.862,2.027,2.027,0,0,0,1.267.34h0.507v6.361a8.508,8.508,0,0,0,.288,2.464,2.477,2.477,0,0,0,1.217,1.445,5.693,5.693,0,0,0,2.73.522,7.824,7.824,0,0,0,2.913-.425A1.354,1.354,0,0,0,76.975,24.2a1.01,1.01,0,0,0-.373-0.8,1.25,1.25,0,0,0-.837-0.322,5.5,5.5,0,0,0-.9.1,5.494,5.494,0,0,1-.915.1,1.269,1.269,0,0,1-.894-0.261,1.142,1.142,0,0,1-.338-0.68,8.529,8.529,0,0,1-.063-1.2V15.06h0.718a4.531,4.531,0,0,0,1.752-.267,0.945,0.945,0,0,0,.612-0.935A1.038,1.038,0,0,0,75.308,13a2,2,0,0,0-1.245-.334H72.655V10.411a6.052,6.052,0,0,0-.106-1.293,1.366,1.366,0,0,0-.5-0.771,2.128,2.128,0,0,0-2.266-.261,1.634,1.634,0,0,0-.647.552,1.676,1.676,0,0,0-.275.783,12.345,12.345,0,0,0-.049,1.256v1.991H68.391A2.236,2.236,0,0,0,67.061,13Zm23.8,6.555a1.582,1.582,0,0,0,.83-1.62,4.982,4.982,0,0,0-.8-2.646,5.866,5.866,0,0,0-2.413-2.118,8.435,8.435,0,0,0-3.863-.819,9.816,9.816,0,0,0-3.152.479,6.552,6.552,0,0,0-2.392,1.378,5.9,5.9,0,0,0-1.478,2.155,7.218,7.218,0,0,0-.507,2.725,6.266,6.266,0,0,0,2.054,4.941A8.386,8.386,0,0,0,84.9,25.851a10.219,10.219,0,0,0,2.864-.364,7.461,7.461,0,0,0,2.069-.916,4.471,4.471,0,0,0,1.231-1.153,1.96,1.96,0,0,0,.408-1.05,0.935,0.935,0,0,0-.366-0.789,1.536,1.536,0,0,0-.957-0.279,1.4,1.4,0,0,0-.844.218q-0.718.583-1.168,0.922a8.453,8.453,0,0,1-.985.637,4.431,4.431,0,0,1-1.1.437,5.29,5.29,0,0,1-1.26.14,4.052,4.052,0,0,1-1.879-.437,3.348,3.348,0,0,1-1.365-1.3,3.908,3.908,0,0,1-.528-1.991h7.515A5.894,5.894,0,0,0,90.865,19.557Zm-8.732-4.042a3.328,3.328,0,0,1,2.357-.856,3.456,3.456,0,0,1,2.427.844,3.721,3.721,0,0,1,1.062,2.543H81.014A3.951,3.951,0,0,1,82.133,15.515ZM44.917,51.808a9.605,9.605,0,0,0,2.167-.479,5.184,5.184,0,0,0,2.392-1.766,4.4,4.4,0,0,0,.886-2.689q0-3.229-4.067-4.346,3.1-1.238,3.1-3.909a3.744,3.744,0,0,0-.3-1.475,4.116,4.116,0,0,0-.858-1.275,4.985,4.985,0,0,0-1.295-.953A6.035,6.035,0,0,0,45,34.31a18.052,18.052,0,0,0-2.561-.158H35.756a2.939,2.939,0,0,0-1.935.516,2.128,2.128,0,0,0-.6,1.693V49.739a2.163,2.163,0,0,0,.584,1.681,2.883,2.883,0,0,0,1.949.528h6.3A25.527,25.527,0,0,0,44.917,51.808Zm0.113-7.156a2.068,2.068,0,0,1,1.1,1.954q0,2.634-4.236,2.634H37.4v-5.2h4.348A6.964,6.964,0,0,1,45.03,44.653ZM40.794,36.86a9.726,9.726,0,0,1,3.391.443A1.738,1.738,0,0,1,45.3,39.093a1.963,1.963,0,0,1-.352,1.141,2.239,2.239,0,0,1-1.3.971,8.839,8.839,0,0,1-2.413.255H37.4v-4.6h3.392Zm16.268,8.078a6.972,6.972,0,0,1,.408-1.791,2.446,2.446,0,0,1,.83-1.135,2.315,2.315,0,0,1,1.379-.382,5.432,5.432,0,0,1,1.428.224,5.462,5.462,0,0,0,1.02.225,1.631,1.631,0,0,0,1.048-.395,1.235,1.235,0,0,0,.486-1,1.583,1.583,0,0,0-1.14-1.384,5.59,5.59,0,0,0-2.35-.522,3.244,3.244,0,0,0-1.935.522,6.041,6.041,0,0,0-1.414,1.542,2.586,2.586,0,0,0-.464-1.542,1.673,1.673,0,0,0-1.379-.522q-1.872,0-1.872,2.233v9.225a1.984,1.984,0,0,0,.535,1.505,1.9,1.9,0,0,0,1.365.51,1.981,1.981,0,0,0,1.393-.5,1.951,1.951,0,0,0,.549-1.511V47.469A23.972,23.972,0,0,1,57.062,44.938Zm11.413-5.663a2,2,0,0,0-1.393-.5,1.919,1.919,0,0,0-1.372.5,1.941,1.941,0,0,0-.528,1.481v9.48a2.007,2.007,0,0,0,.528,1.493,1.867,1.867,0,0,0,1.372.522,1.83,1.83,0,0,0,1.942-2.015V40.659A1.774,1.774,0,0,0,68.476,39.275ZM68.461,36.8a1.422,1.422,0,0,0,.563-1.2,1.385,1.385,0,0,0-.577-1.2,2.217,2.217,0,0,0-1.323-.413,2.145,2.145,0,0,0-1.358.455,1.5,1.5,0,0,0-.014,2.361,2.23,2.23,0,0,0,1.372.425A2.135,2.135,0,0,0,68.461,36.8Zm4.483,14.925a1.867,1.867,0,0,0,1.372.522,1.813,1.813,0,0,0,1.942-2.015V35.864a1.805,1.805,0,0,0-1.942-2.015,1.881,1.881,0,0,0-1.386.51,2.032,2.032,0,0,0-.514,1.505V50.236A2.007,2.007,0,0,0,72.944,51.729Zm7.234,0a1.867,1.867,0,0,0,1.372.522,1.814,1.814,0,0,0,1.942-2.015V35.864a1.805,1.805,0,0,0-1.942-2.015,1.881,1.881,0,0,0-1.386.51,2.032,2.032,0,0,0-.514,1.505V50.236A2.007,2.007,0,0,0,80.178,51.729Zm10-12.454a2,2,0,0,0-1.393-.5,1.919,1.919,0,0,0-1.372.5,1.941,1.941,0,0,0-.528,1.481v9.48a2.007,2.007,0,0,0,.528,1.493,1.867,1.867,0,0,0,1.372.522,1.83,1.83,0,0,0,1.942-2.015V40.659A1.773,1.773,0,0,0,90.177,39.275ZM90.163,36.8a1.421,1.421,0,0,0,.563-1.2,1.385,1.385,0,0,0-.577-1.2,2.218,2.218,0,0,0-1.323-.413,2.145,2.145,0,0,0-1.358.455,1.5,1.5,0,0,0-.014,2.361,2.23,2.23,0,0,0,1.372.425A2.135,2.135,0,0,0,90.163,36.8Zm14.89,14.967a1.821,1.821,0,0,0,1.168.48,2.039,2.039,0,0,0,1.259-.419,1.174,1.174,0,0,0,.556-0.929,5.46,5.46,0,0,0-.359-1.3,5.835,5.835,0,0,1-.359-1.948q0.014-1,.021-1.809t0.007-1.979a6.28,6.28,0,0,0-.6-2.962,3.544,3.544,0,0,0-2.047-1.633,12.284,12.284,0,0,0-3.983-.516,11.541,11.541,0,0,0-3.785.534,5.183,5.183,0,0,0-2.237,1.36,2.578,2.578,0,0,0-.718,1.7,1.1,1.1,0,0,0,.471.916,1.8,1.8,0,0,0,1.119.358A1.358,1.358,0,0,0,96.5,43.4a11.359,11.359,0,0,0,.746-0.929,3.4,3.4,0,0,1,1.266-1.056,5.325,5.325,0,0,1,2.2-.352,3.012,3.012,0,0,1,2.245.613,3.12,3.12,0,0,1,.612,1.924q-1.211.3-2.245,0.516t-2.483.467q-1.449.255-1.815,0.328a5.26,5.26,0,0,0-2.744,1.287,3.1,3.1,0,0,0-1,2.319,3.186,3.186,0,0,0,.605,1.869,4.1,4.1,0,0,0,1.724,1.366,6.271,6.271,0,0,0,2.6.5,8.6,8.6,0,0,0,2.919-.467,12.38,12.38,0,0,0,2.695-1.4A7.347,7.347,0,0,0,105.052,51.772Zm-1.478-5.711a4.482,4.482,0,0,1-.521,2.476,3.2,3.2,0,0,1-1.414,1.111,5.1,5.1,0,0,1-2.1.431A2.69,2.69,0,0,1,97.8,49.55a1.588,1.588,0,0,1-.662-1.281,1.321,1.321,0,0,1,.563-1.135,3.217,3.217,0,0,1,1.182-.546q0.619-.14,2.23-0.437a21.831,21.831,0,0,0,2.456-.564v0.473ZM113.911,39.6a1.6,1.6,0,0,0-.655-0.619,2,2,0,0,0-.915-0.206,1.792,1.792,0,0,0-1.308.467,1.9,1.9,0,0,0-.479,1.414v9.577a1.99,1.99,0,0,0,.535,1.493,1.873,1.873,0,0,0,1.365.522,1.814,1.814,0,0,0,1.942-2.015V46.085a9,9,0,0,1,.282-2.768,3.109,3.109,0,0,1,1.238-1.45,3.46,3.46,0,0,1,1.872-.528,2.267,2.267,0,0,1,2.1.868,4.867,4.867,0,0,1,.528,2.507v5.523a1.99,1.99,0,0,0,.535,1.493,2.11,2.11,0,0,0,2.765.012,2,2,0,0,0,.528-1.505V44.07a11.739,11.739,0,0,0-.113-1.8,3.487,3.487,0,0,0-.492-1.311,3.928,3.928,0,0,0-1.788-1.614,6.23,6.23,0,0,0-2.716-.571,6.689,6.689,0,0,0-2.765.54,6.52,6.52,0,0,0-2.216,1.693v-0.4A1.936,1.936,0,0,0,113.911,39.6Zm26.9,7.562a1.723,1.723,0,0,0-2.167-.146,3.352,3.352,0,0,0-.76.874,4.309,4.309,0,0,1-1.456,1.408,3.984,3.984,0,0,1-1.977.461,4.232,4.232,0,0,1-1.577-.285,3.283,3.283,0,0,1-1.224-.838,3.722,3.722,0,0,1-.774-1.335,5.291,5.291,0,0,1-.267-1.718,4.5,4.5,0,0,1,1.041-3.138,3.529,3.529,0,0,1,2.744-1.147,3.733,3.733,0,0,1,1.949.461,5.392,5.392,0,0,1,1.471,1.384,3.554,3.554,0,0,0,.711.686,1.4,1.4,0,0,0,.795.212,1.927,1.927,0,0,0,1.245-.413,1.251,1.251,0,0,0,.514-1.008,2.275,2.275,0,0,0-.458-1.256A4.983,4.983,0,0,0,139.3,40.1a7.6,7.6,0,0,0-2.111-.971,9.443,9.443,0,0,0-2.737-.376,9.241,9.241,0,0,0-4.137.856,6.112,6.112,0,0,0-2.646,2.422,7.013,7.013,0,0,0-.915,3.605,6.127,6.127,0,0,0,2,4.8,8.036,8.036,0,0,0,5.559,1.79,10.789,10.789,0,0,0,3.011-.388,7.171,7.171,0,0,0,2.217-1.026,4.8,4.8,0,0,0,1.309-1.341,2.566,2.566,0,0,0,.429-1.323A1.376,1.376,0,0,0,140.81,47.165Zm16.3-1.208a1.582,1.582,0,0,0,.83-1.62,4.99,4.99,0,0,0-.8-2.646,5.871,5.871,0,0,0-2.414-2.118,8.433,8.433,0,0,0-3.863-.819,9.823,9.823,0,0,0-3.152.479,6.556,6.556,0,0,0-2.392,1.378,5.912,5.912,0,0,0-1.478,2.155,7.234,7.234,0,0,0-.506,2.725,6.268,6.268,0,0,0,2.054,4.94,8.387,8.387,0,0,0,5.756,1.821A10.232,10.232,0,0,0,154,51.887a7.472,7.472,0,0,0,2.068-.916,4.482,4.482,0,0,0,1.232-1.153,1.96,1.96,0,0,0,.408-1.05,0.937,0.937,0,0,0-.366-0.789,1.536,1.536,0,0,0-.957-0.279,1.4,1.4,0,0,0-.844.218q-0.718.583-1.168,0.923a8.462,8.462,0,0,1-.986.637,4.414,4.414,0,0,1-1.1.437,5.3,5.3,0,0,1-1.26.14,4.049,4.049,0,0,1-1.878-.437,3.344,3.344,0,0,1-1.365-1.3,3.9,3.9,0,0,1-.528-1.991h7.515A5.9,5.9,0,0,0,157.107,45.957Zm-8.732-4.042a3.326,3.326,0,0,1,2.357-.856,3.454,3.454,0,0,1,2.427.844,3.72,3.72,0,0,1,1.063,2.543h-6.966A3.946,3.946,0,0,1,148.375,41.915Z" transform="translate(-33.219 -7.75)"/>
</svg>
